/* XPM */
static char * 1_xpm[] = {
"50 50 9 1",
" 	c #000000",
".	c #C3A38A",
"+	c #F6D6BD",
"@	c #997577",
"#	c #816271",
"$	c #4E495F",
"%	c #010409",
"&	c #000102",
"*	c #010204",
"                                                  ",
"               ..                                 ",
"            +++++.@                               ",
"            ++##.+.#$$$@..@                       ",
"          ++++#..++.@$$#@..@#                     ",
"          +.+++..++..#$$@...@$                    ",
"        ++..+##.+@@+..@$$....@###                 ",
"        ++++##..+@.+...#$@.$.@@@###               ",
"       +##.+#..++..+.++.@@.....@.@@               ",
"       +#..+...##+++.++..@.$$..@@.@$              ",
"       +#.+++++++$$@@++....##....+@$              ",
"        ++++++++$$$@@+...........+@$              ",
"        ..+#.++$$$$@@+.##..++...++@$              ",
"         +#..+$$$#@@@..@.++#@++@++@$              ",
"         +..+$$##@@@+....#+@@++@+@@$              ",
"         +++.@@@@@.....+@++####++@#               ",
"         +.....@@.+...#++++$$$$@+#$               ",
"        ++++...@@....++@+#$$$$$#+$                ",
"        ++.@@@@@@##..+++.$$$$$##+$                ",
"       +@@#$$##@@.$.+...@$$$$##+#$                ",
"       .#$$$#@....#..@@@#$$$$###$$$               ",
"        $$$#..$@..@##$$$$$$$##$$$$$$              ",
"         $#@..@..@@$$$$$$$$$$$$$$$$$              ",
" %        ..@..@@#$$$$$$$$$$$$$$$$$$              ",
"           ...@##$$$$$$$$$$$$$$$$$$$              ",
"            .@@$$$$$$$$$$$$$$$$$$$$               ",
"    &        @#$   $$$$$$$$$$$$$$$                ",
"                    $$$$$$$$$$$$                  ",
"           &         $$$$$$$$$                    ",
"                      $$$$$$$                     ",
"                         $$                       ",
"            +++..                                 ",
"          ++..+.@                                 ",
"        ++.+++.@@##              +++              ",
"        ++..+..@###             +..+.             ",
"      ++..++@@@#@##$          +++++...   ++@+@    ",
"      +....+@@#@.##$         ++##++++.  $.+@@.@   ",
"     ++..++.@@$$$.$$         ..+@@+$$+$$$#.++@    ",
"     +.++$+.@$$$$$$$ *       ..++.+##+$$$$#+.$$   ",
"      ++##.@.$$@$$$          +.$#....$$$$$#.#$$   ",
"      ++++.@#.$$$            +.##@@#$$$$$$##$$$   ",
"        ..##$$$$             +.@#$$$$$$$$$$$$$    ",
"          #$$$$$             +.@#$$     $$$$$$    ",
"           $$$$$               #$$     #$$$$$$    ",
"             $$$                       @$$$$$     ",
"                                        #$$$      ",
"                                        @$        ",
"                                                  ",
"                                                  ",
"                                                  "};
