/* XPM */
static char * 1_xpm[] = {
"50 50 9 1",
" 	c #000000",
".	c #4E495F",
"+	c #997577",
"@	c #816271",
"#	c #C3A38A",
"$	c #F6D6BD",
"%	c #010204",
"&	c #000102",
"*	c #010409",
"                                                  ",
"                                                  ",
"                                                  ",
"        .+                                        ",
"      ...@                                        ",
"     .....+                       ...             ",
"    ......@     ..@               .....           ",
"    ......     ..@+#$             .....@          ",
"    .............@+#$             ....@@##        ",
"   ...@@......@++@@#$            ...#@+#$$$$      ",
"   ..@#@.....####@.#$          ...+..#+#@@$$      ",
"   ..#$@....$@@$#$$##       % .......+#$.$$#$     ",
"    +$$#@...$..$++$##         ..#...++#$$##$$     ",
"   +#++$#.  #$$$$@@$$         .@@#+@++$####$      ",
"    +$+$$   ###$$$$$          .@@+@+++$$##$$      ",
"             #$##$             @@@+##$##$$        ",
"              $$$              @@++#$$$#$$        ",
"                                 +#$##$$          ",
"                                 ##$$$            ",
"                       ..                         ",
"                     .......                      ",
"                    .........         &           ",
"                  ............                    ",
"                ...............   .@+        &    ",
"               ....................++#            ",
"              ...................@@+###           ",
"              ..................@++##+##        * ",
"              .................++##+##+@.         ",
"              ......@@.......@@+##+.##@...        ",
"               ...@@@....@+++##@####+@...@#       ",
"                .@$@@....+###$#.#++@@..@++$       ",
"                .$@@.....#$$$##@@++++++#$$        ",
"                .$@.....@$+$$####++###$$$$        ",
"               .@$+....$$$$@###$#++#####$         ",
"               @+$$@@@@$$+$#####+++++#$$$         ",
"              .++$+$$++$@####$+++@@..$##$         ",
"              .+$$+$$+@$$#+##+++@...$##@$         ",
"              .+$$###$$##@@#$++....$$#@$##        ",
"              .+$###########$++...$$$$$$$$        ",
"              .+$####@@####$$++..$$$$$$$#@$       ",
"              .+#++##..#+##$$#$$$@@###$##@$       ",
"               ++#+#####++#$$#$##$$##@$#@@$       ",
"               @@@+++#.#+.@###$#+$##@@$$$$        ",
"                 @@@+####..+##$++$#@@$##$$        ",
"                    .+###+..@##$$##$$$#$          ",
"                     @+##+@..+#$$##@$$$$          ",
"                       +##+...@#$#@@$$            ",
"                               +#$$$$$            ",
"                                 ##               ",
"                                                  "};
